{
  "accessors": [
    {
      "name": "not_clear_obj_0_v6_1_0_positions",
      "componentType": 5126,
      "count": 12786,
      "min": [
        -22.45549964904785,
        0,
        -22.464000701904297
      ],
      "max": [
        22.484500885009766,
        60.959999084472656,
        22.45560073852539
      ],
      "type": "VEC3",
      "bufferView": 0,
      "byteOffset": 0
    },
    {
      "name": "not_clear_obj_0_v6_1_0_normals",
      "componentType": 5126,
      "count": 12786,
      "min": [
        -1,
        -1,
        -1
      ],
      "max": [
        1,
        1,
        1
      ],
      "type": "VEC3",
      "bufferView": 1,
      "byteOffset": 0
    },
    {
      "name": "not_clear_obj_0_v6_1_0_texcoords",
      "componentType": 5126,
      "count": 12786,
      "min": [
        0.0020000000949949026,
        0.0017999999690800905
      ],
      "max": [
        0.9980000257492065,
        0.9980000257492065
      ],
      "type": "VEC2",
      "bufferView": 2,
      "byteOffset": 0
    },
    {
      "name": "not_clear_obj_0_v6_1_0_indices",
      "componentType": 5123,
      "count": 59994,
      "min": [
        0
      ],
      "max": [
        12785
      ],
      "type": "SCALAR",
      "bufferView": 3,
      "byteOffset": 0
    },
    {
      "name": "shadow_plane_v6_1_0_positions",
      "componentType": 5126,
      "count": 4,
      "min": [
        -39.34809875488281,
        0,
        -39.34769821166992
      ],
      "max": [
        39.34870147705078,
        0,
        39.3484001159668
      ],
      "type": "VEC3",
      "bufferView": 0,
      "byteOffset": 153432
    },
    {
      "name": "shadow_plane_v6_1_0_normals",
      "componentType": 5126,
      "count": 4,
      "min": [
        0,
        1,
        0
      ],
      "max": [
        0,
        1,
        0
      ],
      "type": "VEC3",
      "bufferView": 1,
      "byteOffset": 153432
    },
    {
      "name": "shadow_plane_v6_1_0_texcoords",
      "componentType": 5126,
      "count": 4,
      "min": [
        0,
        0
      ],
      "max": [
        1,
        1
      ],
      "type": "VEC2",
      "bufferView": 2,
      "byteOffset": 102288
    },
    {
      "name": "shadow_plane_v6_1_0_indices",
      "componentType": 5123,
      "count": 6,
      "min": [
        0
      ],
      "max": [
        3
      ],
      "type": "SCALAR",
      "bufferView": 3,
      "byteOffset": 119988
    }
  ],
  "asset": {
    "generator": "obj2gltf",
    "version": "2.0"
  },
  "buffers": [
    {
      "name": "ATGR2663_v6_LOD2",
      "byteLength": 594484,
      "uri": "data:application/octet-stream;base64,"
    }
  ],
  "bufferViews": [
    {
      "name": "bufferView_0",
      "buffer": 0,
      "byteLength": 153480,
      "byteOffset": 0,
      "byteStride": 12,
      "target": 34962
    },
    {
      "name": "bufferView_1",
      "buffer": 0,
      "byteLength": 153480,
      "byteOffset": 153480,
      "byteStride": 12,
      "target": 34962
    },
    {
      "name": "bufferView_2",
      "buffer": 0,
      "byteLength": 102320,
      "byteOffset": 306960,
      "byteStride": 8,
      "target": 34962
    },
    {
      "name": "bufferView_3",
      "buffer": 0,
      "byteLength": 120000,
      "byteOffset": 409280,
      "target": 34963
    },
    {
      "buffer": 0,
      "byteOffset": 529280,
      "byteLength": 4257
    },
    {
      "buffer": 0,
      "byteOffset": 533537,
      "byteLength": 22336
    },
    {
      "buffer": 0,
      "byteOffset": 555873,
      "byteLength": 38608
    }
  ],
  "images": [
    {
      "name": "Color_V01_1024",
      "mimeType": "image/jpeg",
      "bufferView": 4
    },
    {
      "name": "bmp_v01_1024_normal_Normal_Bump",
      "mimeType": "image/jpeg",
      "bufferView": 5
    },
    {
      "name": "ATGR2663_shadow_plane_v6",
      "mimeType": "image/png",
      "bufferView": 6
    }
  ],
  "materials": [
    {
      "name": "spec__636363_8_Wood_wf_47_ATGR2663",
      "pbrMetallicRoughness": {
        "baseColorTexture": {
          "index": 0
        },
        "baseColorFactor": [
          1,
          1,
          1,
          1
        ],
        "metallicFactor": 0,
        "roughnessFactor": 0.992
      },
      "normalTexture": {
        "index": 1
      },
      "emissiveFactor": [
        0,
        0,
        0
      ],
      "alphaMode": "OPAQUE",
      "doubleSided": false
    },
    {
      "name": "shadow_mtl_ATGR2663",
      "pbrMetallicRoughness": {
        "baseColorTexture": {
          "index": 2
        },
        "baseColorFactor": [
          1,
          1,
          1,
          1
        ],
        "metallicFactor": 0,
        "roughnessFactor": 0.99
      },
      "emissiveFactor": [
        0,
        0,
        0
      ],
      "alphaMode": "OPAQUE",
      "doubleSided": false
    }
  ],
  "meshes": [
    {
      "name": "not_clear_obj_0_v6_1",
      "primitives": [
        {
          "attributes": {
            "POSITION": 0,
            "NORMAL": 1,
            "TEXCOORD_0": 2
          },
          "indices": 3,
          "material": 0,
          "mode": 4
        }
      ]
    },
    {
      "name": "shadow_plane_v6_1",
      "primitives": [
        {
          "attributes": {
            "POSITION": 4,
            "NORMAL": 5,
            "TEXCOORD_0": 6
          },
          "indices": 7,
          "material": 1,
          "mode": 4
        }
      ]
    }
  ],
  "nodes": [
    {
      "name": "not_clear_obj_0_v6",
      "mesh": 0
    },
    {
      "name": "shadow_plane_v6",
      "mesh": 1
    }
  ],
  "samplers": [
    {
      "magFilter": 9729,
      "minFilter": 9986,
      "wrapS": 10497,
      "wrapT": 10497
    }
  ],
  "scene": 0,
  "scenes": [
    {
      "nodes": [
        0,
        1
      ]
    }
  ],
  "textures": [
    {
      "name": "Color_V01_1024",
      "sampler": 0,
      "source": 0
    },
    {
      "name": "bmp_v01_1024_normal_Normal_Bump",
      "sampler": 0,
      "source": 1
    },
    {
      "name": "ATGR2663_shadow_plane_v6",
      "sampler": 0,
      "source": 2
    }
  ]
}
